<svg xmlns="http://www.w3.org/2000/svg" width="18" height="15" viewBox="0 0 18 15">
    <g fill="none" fill-rule="evenodd">
        <g fill="#000" fill-rule="nonzero">
            <g>
                <path d="M2.628 15c-.11 0-.22-.11-.22-.219v-3.285c0-.11.11-.328.22-.328s.11 0 .219.11c0 0 .11.109.11.218v2.628l2.408-2.737s.11-.11.219-.11h4.927c.547 0 .985-.438.985-.985v-6.24c0-.548-.438-.986-.985-.986H1.423c-.547 0-.985.438-.985.985v6.241c0 .438.219.766.657.876.11 0 .219.219.219.328 0 .11-.11.22-.22.22C.439 11.495 0 10.948 0 10.291v-6.24c0-.877.657-1.534 1.533-1.534h4.27v-.985C5.803.657 6.46 0 7.336 0h9.087c.876 0 1.533.657 1.533 1.533v6.24c0 .877-.657 1.534-1.533 1.534h-.985v3.065c0 .11 0 .11-.11.22 0 0-.109.109-.219.109-.109 0-.109 0-.218-.11l-2.847-3.284v.985c0 .876-.657 1.533-1.533 1.533H5.693L2.847 15c0-.11-.11 0-.22 0zm9.525-6.35c.11 0 .11 0 .22.11l2.408 2.736V8.87c0-.11.11-.22.219-.22h1.204c.548 0 .986-.437.986-.985v-6.24c0-.548-.438-.986-.986-.986H7.226c-.547 0-.985.438-.985.985v.986h4.27c.876 0 1.533.657 1.533 1.533V8.65h.11zM8.431 7.555c-.22 0-.438-.22-.438-.438 0-.22.219-.438.438-.438s.438.219.438.438-.11.438-.438.438zm-2.41 0c-.218 0-.437-.22-.437-.438 0-.22.219-.438.438-.438s.438.219.438.438-.22.438-.438.438zm-2.517 0c-.22 0-.438-.22-.438-.438 0-.22.219-.438.438-.438s.438.219.438.438-.22.438-.438.438z" transform="translate(-87 -81) translate(87 81)"/>
            </g>
        </g>
    </g>
</svg>
