<svg xmlns="http://www.w3.org/2000/svg" width="454" height="29" viewBox="0 0 454 29">
    <g fill="none" fill-rule="evenodd">
        <g fill="#000" fill-rule="nonzero">
            <g>
                <path d="M0 28.2L0 .7 23.4.7 23.4 3.1 3 3.1 3 13.6 21.3 13.6 21.3 16 3 16 3 28.2zM74.8 28.2l-4.1-7.6H51.9l-4.1 7.6h-3.2L60 .5h2.6L78 28.2h-3.2zm-5.4-9.9L61.3 3.5l-8.1 14.8h16.2zM117.4 28.7c-9.3 0-16.4-6.1-16.4-14.2S108.2.2 117.5.2c5.8 0 9.3 1.7 12.8 4.4l.3.2-2.1 1.8-.3-.1c-2.4-1.9-5.6-3.9-10.8-3.9-7.6 0-13.4 5.1-13.4 11.8 0 6.8 5.9 12 13.4 12 4.2 0 7.4-1.2 11-4.1l.2-.1 2 1.7-.3.2c-2.7 2.2-6.5 4.6-12.9 4.6zM168.2 28.2L168.2 3.1 156.9 3.1 156.9.7 182.4.7 182.4 3.1 171.1 3.1 171.1 28.2zM288.8 28.2L278.5 17h-10.2v11.2h-2.9V.7h13.9c3.9 0 7.2 1 9.3 2.7 1.6 1.3 2.6 3.3 2.6 5.2 0 4.3-3.4 7.2-9.2 8l10.6 11.6h-3.8zm-9.9-13.5c5.5 0 9.2-2.4 9.2-5.9 0-3.6-3.4-5.7-9-5.7h-10.8v11.6h10.6zM331.4 28.2L331.4 17.4 317.2.7 320.9.7 332.9 15 344.9.7 348.5.7 334.3 17.3 334.3 28.2zM391.2 28.7c-4.2 0-8.4-1.5-11.8-4.3l-.2-.2 2.8-2.6.2.1c3 2.4 6 3.6 9 3.6 4.4 0 7.6-2.4 7.6-5.7 0-3.3-3.2-5.5-7.8-5.5-2.3 0-4.4.5-6.7 1.5l-.1.1-2.7-1.5 1-13.6h19.1V4h-15.5l-.6 8c1.9-.7 3.6-1.1 6.1-1.1 6.8 0 11.5 3.5 11.5 8.5 0 5.5-4.9 9.3-11.9 9.3zM444.5 28.2v-6.4h-17l-1.1-2.5L444.9.5h3.6v18.3h5v3.1h-5v6.4h-4v-.1zm0-9.5v-13l-12.7 13h12.7zM221.5 28.6c-8.4 0-14.8-6.1-14.8-14.2 0-9 7.6-14.4 14.9-14.4 8.4 0 14.8 6.1 14.8 14.2 0 9.1-7.6 14.4-14.9 14.4zm0-26.2c-6.9 0-12 5.1-12 11.8 0 6.8 5.3 12 12.1 12 6.9 0 12-5.1 12-11.8 0-6.7-5.3-12-12.1-12z" transform="translate(-126 -253) translate(126 253)"/>
            </g>
        </g>
    </g>
</svg>
