<svg xmlns="http://www.w3.org/2000/svg" width="19" height="18" viewBox="0 0 19 18">
    <g fill="none" fill-rule="evenodd">
        <g fill="#1A1919" stroke="#000" stroke-width=".6">
            <g>
                <g>
                    <g>
                        <path d="M12.434 9.912c-.076.051-.102.153-.076.229l1.09 5.2-4.743-2.613c-.025-.025-.076-.025-.127-.025-.05 0-.076 0-.126.025L3.708 15.34l1.09-5.175c.026-.076 0-.178-.075-.228L.715 6.36l5.403-.583c.076 0 .152-.05.203-.127L8.578.831l2.258 4.82c.025.076.101.127.203.127l5.403.583-4.008 3.551zm4.743-3.88c-.025-.026-.076-.051-.127-.077l-5.834-.634-2.41-5.2C8.756.02 8.63-.03 8.528.02c-.051.025-.076.05-.102.101l-2.41 5.2-5.834.634c-.127.026-.203.127-.177.229 0 .05.025.101.076.126l4.337 3.856-1.192 5.58c-.025.102.05.229.178.254.05 0 .101 0 .152-.025l5.048-2.841 5.098 2.815c.026.026.076.026.127.026.127 0 .203-.102.203-.229v-.025l-1.192-5.58 4.337-3.856c.076-.05.076-.177 0-.254h0z" transform="translate(-130 -70) translate(85 61) translate(0 10) translate(46.028)"/>
                    </g>
                </g>
            </g>
        </g>
    </g>
</svg>
