<svg xmlns="http://www.w3.org/2000/svg" width="18" height="18" viewBox="0 0 18 18">
    <g fill="none" fill-rule="evenodd">
        <g fill="#1A1919" stroke="#000" stroke-width=".6">
            <g>
                <g>
                    <path d="M.515 15.488L1.82 3.712h3.2v1.434c0 .204.052.384.256.384.205 0 .256-.18.256-.384V3.712h4.992v1.434c0 .204.052.384.256.384.205 0 .256-.18.256-.384V3.712h3.2l1.306 11.776H.515zM5.532 3.046C5.532 1.664 6.66.538 8.041.538c1.383 0 2.509 1.126 2.509 2.508V3.2H5.558v-.154h-.026zM16.028 15.59L14.697 3.507c-.025-.179-.179-.333-.358-.333h-3.303v-.153C11.036 1.357 9.68 0 8.016 0S4.995 1.357 4.995 3.02v.154H1.692c-.179 0-.358.154-.358.333L.003 15.59c-.026.205.128.384.333.41H15.67c.205 0 .358-.154.358-.358v-.052z" transform="translate(-84 -70) translate(85 61) translate(0 10)"/>
                </g>
            </g>
        </g>
    </g>
</svg>
