<svg xmlns="http://www.w3.org/2000/svg" width="17" height="17" viewBox="0 0 17 17">
    <g fill="none" fill-rule="evenodd">
        <g fill="#1A1919" stroke="#000" stroke-width=".6">
            <g>
                <g>
                    <g>
                        <path d="M7.58 7.96h-.102c-2.024-.026-3.662-1.69-3.662-3.714C3.816 2.198 5.48.533 7.529.533c2.048 0 3.713 1.665 3.713 3.713 0 2.023-1.64 3.662-3.662 3.713m7.477 7.785c0-3.79-2.484-6.863-5.89-7.631 2.152-.896 3.15-3.38 2.254-5.531C10.524.43 8.04-.568 5.89.329c-2.151.896-3.15 3.38-2.254 5.53.436 1.025 1.23 1.819 2.254 2.254C2.484 8.881 0 11.954 0 15.743c0 .155.103.257.256.257.154 0 .256-.102.256-.256 0-4.072 3.048-7.272 6.966-7.298h.102c3.918.026 6.965 3.226 6.965 7.298 0 .154.102.256.256.256.128 0 .256-.102.256-.256" transform="translate(-177 -70) translate(85 61) translate(0 10) translate(93.263)"/>
                    </g>
                </g>
            </g>
        </g>
    </g>
</svg>
