<svg xmlns="http://www.w3.org/2000/svg" width="18" height="18" viewBox="0 0 18 18">
    <g fill="none" fill-rule="evenodd">
        <g fill="#1A1919" stroke="#000" stroke-width=".6">
            <g>
                <g>
                    <g>
                        <path d="M12.335 6.455c0 3.254-2.626 5.88-5.88 5.88-3.255 0-5.88-2.626-5.88-5.88C.574 3.2 3.2.575 6.454.575c3.227 0 5.88 2.625 5.88 5.88M6.455 0C2.899 0 0 2.872 0 6.455c0 3.555 2.9 6.454 6.455 6.454 1.613 0 3.2-.738 4.348-1.723l4.705 4.732c.11.11.273.11.383 0 .109-.11.109-.274 0-.383l-4.732-4.732c.985-1.12 1.723-2.707 1.723-4.32C12.882 2.871 10.01 0 6.455 0" transform="translate(-1378 -70) translate(85 61) translate(1174 9) translate(120 1)"/>
                    </g>
                </g>
            </g>
        </g>
    </g>
</svg>
