<svg xmlns="http://www.w3.org/2000/svg" width="23" height="18" viewBox="0 0 23 18">
    <g fill="none" fill-rule="evenodd">
        <g fill="#000" fill-rule="nonzero">
            <g>
                <path d="M18.966 0H2.658C1.208 0 0 1.208 0 2.658v12.684C0 16.792 1.208 18 2.658 18h16.308c1.45 0 2.658-1.208 2.658-2.658V2.658C21.504 1.208 20.537 0 18.966 0zM20.9 15.463c0 1.087-.966 2.054-2.053 2.054H2.658c-1.088 0-2.054-.967-2.054-2.054V2.658C.604 1.57 1.45.604 2.658.604h16.308c1.088 0 2.054.966 2.054 2.054v12.805h-.12z" transform="translate(-213 -142) translate(213.863 142)"/>
                <path d="M13.893 8.094L8.819 5.436c-.121-.12-.483-.12-.604-.12-.604 0-1.208.483-1.208 1.207v5.195c0 .12 0 .363.12.483.242.363.605.604 1.088.604.12 0 .362 0 .483-.12l5.074-2.537c.241-.121.362-.242.483-.484.362-.604 0-1.328-.362-1.57zm-.242 1.208c0 .12-.12.12-.242.242L8.336 12.08h-.242c-.242 0-.362-.121-.483-.242V6.523c0-.241.241-.483.483-.483h.242l5.073 2.537c.484.121.484.483.242.725z" transform="translate(-213 -142) translate(213.863 142)"/>
            </g>
        </g>
    </g>
</svg>
