<svg xmlns="http://www.w3.org/2000/svg" width="19" height="18" viewBox="0 0 19 18">
    <g fill="none" fill-rule="evenodd">
        <g fill="#000" fill-rule="nonzero">
            <g>
                <g>
                    <path d="M.242 3.624H2.537V10.872H.242zM1.329 2.658C.604 2.658 0 2.054 0 1.328 0 .605.604 0 1.329 0s1.329.604 1.329 1.329-.604 1.329-1.33 1.329zM10.993 10.872H8.698V7.37c0-.846 0-1.933-1.208-1.933S6.16 6.403 6.16 7.248v3.624H3.866V3.624H6.04v.967c.242-.604 1.088-1.208 2.175-1.208 2.295 0 2.657 1.45 2.657 3.503l.121 3.986z" transform="translate(-151 -142) translate(151.956 142) translate(3.503 3.624)"/>
                </g>
                <path d="M15.221 0H2.658C1.208 0 0 1.208 0 2.658v12.684C0 16.792 1.208 18 2.658 18h12.684C16.792 18 18 16.792 18 15.342V2.658C17.88 1.208 16.913 0 15.221 0zm2.054 15.463c0 1.087-.966 2.054-2.054 2.054H2.658c-1.088 0-2.054-.967-2.054-2.054V2.658C.604 1.57 1.45.604 2.658.604h12.684c1.088 0 2.054.966 2.054 2.054v12.805h-.12z" transform="translate(-151 -142) translate(151.956 142)"/>
            </g>
        </g>
    </g>
</svg>
