<svg xmlns="http://www.w3.org/2000/svg" width="19" height="18" viewBox="0 0 19 18">
    <g fill="none" fill-rule="evenodd">
        <g fill="#000" fill-rule="nonzero">
            <g>
                <path d="M15.36 0H2.64C1.2 0 0 1.2 0 2.64v12.72C0 16.8 1.2 18 2.64 18h12.6c1.44 0 2.64-1.2 2.64-2.64V2.64C18 1.2 16.8 0 15.36 0zM2.64 17.4C1.56 17.4.6 16.44.6 15.36V2.64C.6 1.56 1.56.6 2.64.6h12.6c1.08 0 2.04.96 2.04 2.04v12.6c0 1.08-.96 2.04-2.04 2.04H2.64v.12zM9 4.44C6.48 4.44 4.44 6.48 4.44 9c0 2.52 2.04 4.56 4.56 4.56 2.52 0 4.56-2.04 4.56-4.56 0-2.52-2.04-4.56-4.56-4.56zm0 8.4c-2.16 0-3.84-1.8-3.84-3.84S6.96 5.16 9 5.16s3.84 1.8 3.84 3.84-1.68 3.84-3.84 3.84zM13.92 3c.6 0 1.08.48 1.08 1.08 0 .6-.48 1.08-1.08 1.08-.6 0-1.08-.48-1.08-1.08 0-.6.36-1.08 1.08-1.08z" transform="translate(-182 -142) translate(182.956 142)"/>
            </g>
        </g>
    </g>
</svg>
