<svg xmlns="http://www.w3.org/2000/svg" width="19" height="18" viewBox="0 0 19 18">
    <g fill="none" fill-rule="evenodd">
        <g fill="#000" fill-rule="nonzero">
            <g>
                <path d="M7.49 5.678v1.45H6.403V9.06H7.49v5.437h2.295V9.06h1.57s.122-.845.242-1.812H9.906V6.04c0-.241.242-.483.483-.483h1.208V3.624H9.906c-2.416 0-2.416 1.812-2.416 2.054z" transform="translate(-120 -142) translate(120.956 142)"/>
                <path d="M15.221 0H2.658C1.208 0 0 1.208 0 2.658v12.684C0 16.792 1.208 18 2.658 18h12.684C16.792 18 18 16.792 18 15.342V2.658C18 1.208 16.792 0 15.221 0zm2.175 15.463c0 1.087-.966 2.054-2.054 2.054H2.658c-1.208 0-2.175-.967-2.175-2.054V2.658C.483 1.57 1.45.604 2.658.604h12.684c1.088 0 2.054.966 2.054 2.054v12.805z" transform="translate(-120 -142) translate(120.956 142)"/>
            </g>
        </g>
    </g>
</svg>
