<svg xmlns="http://www.w3.org/2000/svg" width="14" height="14" viewBox="0 0 14 14">
    <g fill="none" fill-rule="evenodd">
        <g fill="#000" fill-rule="nonzero">
            <g>
                <g>
                    <g>
                        <g>
                            <g>
                                <g>
                                    <g>
                                        <path d="M6.836 9.07l2.363 1.554c.065.043.154.025.197-.04.023-.035.03-.077.019-.116l-.703-2.539c-.03-.11.008-.226.097-.297l2.066-1.642c.061-.05.072-.139.022-.2-.025-.032-.063-.051-.104-.053l-2.64-.119c-.115-.005-.215-.077-.255-.183L6.97 2.969c-.027-.073-.11-.11-.183-.083-.039.015-.069.045-.083.083l-.93 2.466c-.04.106-.14.178-.253.183l-2.64.119c-.08.003-.14.07-.137.148.002.041.022.08.054.105l2.066 1.642c.09.07.127.188.097.297l-.703 2.539c-.02.075.024.153.1.174.04.011.082.004.116-.018L6.836 9.07zm-4.343 3.5L3.71 8.17.13 5.322c-.148-.118-.172-.332-.054-.48.061-.076.153-.123.252-.127l4.578-.206L6.515.235c.067-.176.264-.266.441-.2.092.035.165.108.2.2l1.611 4.274 4.578.206c.189.008.335.168.327.356-.005.098-.052.19-.129.25L9.961 8.17l1.218 4.402c.05.181-.057.369-.239.419-.095.026-.197.01-.279-.044L6.836 10.43 3.01 12.946c-.158.103-.37.06-.474-.097-.054-.082-.07-.184-.044-.278z" transform="translate(-698 -992) translate(85 244) translate(0 47) translate(0 54) translate(0 630) translate(346) translate(260 10) translate(7 7)"/>
                                    </g>
                                </g>
                            </g>
                        </g>
                    </g>
                </g>
            </g>
        </g>
    </g>
</svg>
