<svg xmlns="http://www.w3.org/2000/svg" width="17" height="20" viewBox="0 0 17 20">
    <g fill="none" fill-rule="evenodd">
        <g fill="#000" fill-rule="nonzero">
            <g>
                <g>
                    <g>
                        <g>
                            <g>
                                <g>
                                    <g transform="translate(-1342 -574) translate(86 252) translate(924) translate(0 107) translate(0 53) translate(14) translate(-2) translate(320 162)">
                                        <circle cx="8.048" cy="2" r="2"/>
                                        <path d="M7.048 20c-3.86 0-7-3.14-7-7 0-2.365 1.182-4.553 3.16-5.854.462-.303 1.082-.175 1.385.287.303.461.175 1.081-.287 1.385-1.415.93-2.258 2.493-2.258 4.182 0 2.757 2.243 5 5 5 1.281 0 2.499-.482 3.43-1.361.4-.378 1.034-.361 1.413.04.38.402.36 1.035-.041 1.414C10.547 19.323 8.84 20 7.048 20z"/>
                                        <path d="M15.048 17c-.26 0-.51-.1-.71-.29l-2.7-2.71h-4.59c-.552 0-1-.447-1-1V7c0-1.11.9-2 2-2s2 .89 2 2v5h2.41l3.3 3.29c.39.39.39 1.03 0 1.42-.2.19-.45.29-.71.29z"/>
                                    </g>
                                </g>
                            </g>
                        </g>
                    </g>
                </g>
            </g>
        </g>
    </g>
</svg>
