<svg width="238" height="238" viewBox="0 0 238 238" fill="none" xmlns="http://www.w3.org/2000/svg">
<path d="M89.7281 157.72C86.3281 154.279 80.7929 154.238 77.3521 157.638L21.4833 212.814C18.0425 216.214 18.0017 221.749 21.4017 225.19C24.8017 228.63 30.3369 228.671 33.7777 225.271L89.6465 170.096C93.0873 166.71 93.1281 161.161 89.7281 157.72Z" fill="#00E0FF"/>
<path d="M39.6119 146.568L3.96634 181.765C0.525537 185.165 0.484736 190.7 3.88474 194.141C7.28474 197.582 12.8199 197.623 16.2607 194.223L51.9063 159.026C55.3471 155.626 55.3879 150.091 51.9879 146.65C48.5879 143.209 43.0527 143.168 39.6119 146.568Z" fill="#B77AFA"/>
<path d="M102.036 195.841C98.6356 192.4 93.1004 192.359 89.6596 195.759L72.782 212.433C69.3412 215.833 69.3004 221.368 72.7004 224.809C76.1004 228.25 81.6356 228.291 85.0764 224.891L101.954 208.217C105.395 204.831 105.436 199.282 102.036 195.841Z" fill="#FFB300"/>
<path d="M228.665 17.7209C220.777 9.8737 209 7.3985 198.623 11.4241L37.8029 73.7257C34.1445 75.1401 30.8669 77.2753 28.0245 80.1177C17.0765 91.1201 17.1173 108.977 28.1197 119.925C31.6149 123.406 35.9805 125.922 40.7405 127.187L75.0941 136.299C78.7525 137.265 82.6693 136.218 85.3485 133.538C91.1421 127.745 88.4765 117.83 80.5477 115.736L46.1941 106.624C45.0245 106.311 43.9909 105.713 43.1205 104.856C40.4277 102.177 40.4277 97.8249 43.1069 95.1185C43.7869 94.4385 44.5893 93.9217 45.4733 93.5681L206.307 31.2665C208.836 30.2873 211.72 30.8857 213.651 32.8033C215.582 34.7209 216.194 37.5905 215.228 40.1337L153.702 201.253C153.376 202.11 152.872 202.885 152.22 203.578C149.676 206.203 145.27 206.326 142.604 203.823C141.639 202.926 140.986 201.838 140.66 200.6L123.034 139.468L152.002 111.697C156.504 107.372 156.653 100.218 152.342 95.7169C148.017 91.2153 140.864 91.0657 136.362 95.3769L102.484 127.854C99.0301 131.158 98.1461 136.136 99.8597 140.298L120.11 206.149C121.388 210.895 123.932 215.247 127.427 218.742C138.402 229.663 156.245 229.65 167.193 218.702L167.248 218.647C170.049 215.832 172.184 212.527 173.599 208.842L235.125 47.7225C239.083 37.3457 236.553 25.5681 228.665 17.7209Z" fill="white"/>
</svg>
