<svg xmlns="http://www.w3.org/2000/svg" width="298" height="447" viewBox="0 0 298 447">
    <g fill="none" fill-rule="evenodd">
        <g>
            <g>
                <path fill="#F2F2F2" d="M0 0H298V447H0z" transform="translate(-411 -65) translate(411 65)"/>
                <g fill="#000" fill-rule="nonzero" opacity=".099">
                    <path d="M65.78 25.733H45.486v-9.259l5.213 2.652c.89.452 1.99.095 2.449-.8l4.702-9.182c.454-.884.116-1.989-.754-2.463L45.063.135C44.9.046 44.716 0 44.53 0h-.001l-7.402.004c-.549 0-1.016.4-1.1.944-.67 4.329-3.615 7.47-7.002 7.47-3.384 0-6.328-3.138-7.001-7.462-.085-.542-.552-.942-1.1-.942h-.001L13.52.018c-.185 0-.367.047-.53.135L.958 6.681c-.871.472-1.21 1.578-.756 2.462l4.702 9.183c.457.895 1.556 1.254 2.449.8l5.212-2.651v23.274c0 1.015.82 1.84 1.828 1.84h14.51v13.806c-.012 0-.023.003-.035.004-.065-.012-.13-.02-.2-.02H8.624c-1.842 0-3.341 1.498-3.341 3.34v2.228c0 3.889 3.164 7.053 7.053 7.053h.716c3.89 0 7.053-3.164 7.053-7.053v-2.228c0-.392-.08-.763-.205-1.113h6.032c-.125.35-.205.721-.205 1.113v2.228c0 3.889 3.164 7.053 7.053 7.053h.716c2.675 0 5.007-1.497 6.202-3.697h5.71c1.057 0 1.916-.86 1.916-1.916V44.906h1.953v17.481c0 1.057.86 1.916 1.915 1.916h14.59c1.056 0 1.915-.86 1.915-1.916V27.648c0-1.056-.86-1.915-1.916-1.915zM17.877 60.947c0 2.66-2.165 4.826-4.826 4.826h-.716c-2.66 0-4.826-2.165-4.826-4.826v-2.228c0-.614.5-1.113 1.114-1.113h8.14c.614 0 1.114.5 1.114 1.113v2.228zm-3.085-21.585V15.833c0-.647-.327-1.234-.877-1.57-.542-.333-1.205-.36-1.774-.071l-5.436 2.764-4.352-8.498 11.452-6.212 6.2-.004c1.12 4.924 4.797 8.404 9.021 8.404 4.228 0 7.906-3.485 9.024-8.415l6.198-.004 11.451 6.23-4.351 8.5-5.438-2.765c-.567-.29-1.23-.262-1.774.07-.55.337-.877.924-.877 1.571v23.529H14.792zm23.529 21.585c0 2.66-2.165 4.826-4.826 4.826h-.716c-2.66 0-4.826-2.165-4.826-4.826v-2.228c0-.614.5-1.113 1.114-1.113h8.14c.614 0 1.114.5 1.114 1.113v2.228zm27.147 1.129H51.503V44.593c0-1.055-.859-1.914-1.915-1.914H47.01c-1.055 0-1.915.859-1.915 1.914v17.483H40.45c.06-.369.099-.744.099-1.13V58.72c0-1.842-1.499-3.34-3.341-3.34H31.13v-13.79h12.53c1.007 0 1.826-.825 1.826-1.84v-7.246h19.982v29.573zm0-31.8H45.486v-2.315h19.982v2.315z" transform="translate(-411 -65) translate(411 65) translate(115 190)"/>
                </g>
            </g>
        </g>
    </g>
</svg>
