<svg width="35" height="35" viewBox="0 0 35 35" fill="none" xmlns="http://www.w3.org/2000/svg">
<circle cx="17.5" cy="17.5" r="17.5" fill="#F6F6F6"/>
<circle cx="17.5" cy="17.5" r="17.15" stroke="#737272" stroke-opacity="0.21" stroke-width="0.7"/>
<path d="M9.33319 23.3333L10.8887 11.3021L23.3332 10.5L25.6665 23.3333H24.111H9.33319Z" fill="white"/>
<path fill-rule="evenodd" clip-rule="evenodd" d="M9.85793 22.8107L11.1878 10.7893H14.4488V12.2532C14.4488 12.4615 14.5018 12.6452 14.7097 12.6452C14.9186 12.6452 14.9705 12.4615 14.9705 12.2532V10.7893H20.0577V12.2532C20.0577 12.4615 20.1107 12.6452 20.3186 12.6452C20.5275 12.6452 20.5794 12.4615 20.5794 12.2532V10.7893H23.8404L25.1713 22.8107H9.85793ZM14.9705 10.1095C14.9705 8.69867 16.12 7.54921 17.5274 7.54921C18.9367 7.54921 20.0842 8.69867 20.0842 10.1095V10.2667H14.997V10.1095H14.9705ZM25.6666 22.9148L24.3102 10.5801C24.2847 10.3973 24.1278 10.2401 23.9454 10.2401H20.5794V10.0839C20.5794 8.38527 19.1976 7 17.5019 7C15.8062 7 14.4233 8.38527 14.4233 10.0829V10.2401H11.0574C10.875 10.2401 10.6925 10.3973 10.6925 10.5801L9.33617 22.9148C9.30968 23.1241 9.46661 23.3068 9.67552 23.3333H25.3018C25.5107 23.3333 25.6666 23.1761 25.6666 22.9679V22.9148Z" fill="#737272" stroke="#737272" stroke-width="0.583333"/>
<g clip-path="url(#clip0_386_9552)">
<circle cx="24.5003" cy="20.8541" r="3.98611" fill="white"/>
<path d="M24.5 25.3385C26.9767 25.3385 28.9844 23.3308 28.9844 20.8541C28.9844 18.3775 26.9767 16.3698 24.5 16.3698C22.0233 16.3698 20.0156 18.3775 20.0156 20.8541C20.0156 23.3308 22.0233 25.3385 24.5 25.3385Z" stroke="#737272" stroke-width="0.896875" stroke-linecap="round" stroke-linejoin="round"/>
<path d="M24.5 19.3594V22.349" stroke="#737272" stroke-width="0.896875" stroke-linecap="round" stroke-linejoin="round"/>
<path d="M23.0055 20.8541H25.9951" stroke="#737272" stroke-width="0.896875" stroke-linecap="round" stroke-linejoin="round"/>
</g>
<defs>
<clipPath id="clip0_386_9552">
<rect width="11.9583" height="11.9583" fill="white" transform="translate(18.5205 14.875)"/>
</clipPath>
</defs>
</svg>
